<svg width="388" height="164" viewBox="0 0 388 164" fill="none" xmlns="http://www.w3.org/2000/svg">
<mask id="path-1-outside-1_1336_2342" maskUnits="userSpaceOnUse" x="49" y="33" width="297" height="112" fill="black">
<rect fill="white" x="49" y="33" width="297" height="112"/>
<path d="M93.487 94.125C93.9037 94.125 94.2787 94.0208 94.612 93.8125V88.125C97.4453 86.2083 101.404 84.6458 106.487 83.4375C111.612 82.2292 116.591 81.625 121.424 81.625C123.633 83.875 125.466 87.25 126.924 91.75C128.424 96.2083 129.216 100.25 129.299 103.875C128.466 105.542 127.049 107.333 125.049 109.25C123.091 111.167 120.716 112.938 117.924 114.562C111.008 118.646 103.07 120.688 94.112 120.688C81.2787 120.688 71.1745 116.958 63.7995 109.5C56.1745 101.958 52.362 91.5208 52.362 78.1875C52.362 64.8125 56.5287 54.3125 64.862 46.6875C68.5287 43.2708 72.7995 40.7083 77.6745 39C82.5495 37.25 87.6745 36.375 93.0495 36.375C103.549 36.375 112.154 38.9167 118.862 44C125.57 49.0833 128.924 55.3542 128.924 62.8125C128.924 68.4375 127.195 72.6042 123.737 75.3125C120.279 77.9792 115.591 79.3125 109.674 79.3125C106.424 79.3125 103.154 78.5208 99.862 76.9375C96.5703 75.3125 94.612 73.7917 93.987 72.375C93.987 68.9583 94.0495 66.2708 94.1745 64.3125C94.0912 64.2708 93.9453 64.25 93.737 64.25H93.2995C92.6745 64.25 92.1745 64.4375 91.7995 64.8125C91.4662 65.1458 91.1537 65.875 90.862 67C90.612 68.125 90.487 71.1875 90.487 76.1875C90.487 88.1458 91.487 94.125 93.487 94.125ZM162.454 84.1875V95.125C162.746 95.4167 163.225 95.5625 163.892 95.5625C164.558 95.5625 165.037 95.3333 165.329 94.875C165.621 94.4167 165.767 93.625 165.767 92.5V83.5625C165.767 79.5625 165.6 76.9167 165.267 75.625C164.933 74.2917 164.308 73.625 163.392 73.625C162.808 73.625 162.308 73.8333 161.892 74.25C162.267 78.375 162.454 81.6875 162.454 84.1875ZM139.079 111.875C132.246 105.292 128.829 96.375 128.829 85.125C128.829 73.8333 132.037 64.9375 138.454 58.4375C144.912 51.8958 153.371 48.625 163.829 48.625C174.287 48.625 182.746 52.0208 189.204 58.8125C195.621 65.6042 198.829 74.4583 198.829 85.375C198.829 96.25 195.725 104.896 189.517 111.312C183.35 117.729 174.954 120.938 164.329 120.938C153.704 120.938 145.287 117.917 139.079 111.875ZM234.296 96.25C235.671 96 236.359 95.3125 236.359 94.1875C236.359 93.0208 235.984 91.7292 235.234 90.3125C234.525 88.8542 233.463 87.4792 232.046 86.1875C228.338 82.8542 223.317 81.1875 216.984 81.1875C213.859 81.1875 210.942 81.7083 208.234 82.75C205.359 81.2917 203.067 78.9792 201.359 75.8125C199.65 72.6458 198.796 69.2292 198.796 65.5625C198.796 55.9792 202.796 48.5833 210.796 43.375C217.671 38.9167 226.15 36.6875 236.234 36.6875C243.734 36.6875 250.046 37.5 255.171 39.125C260.296 40.7083 264.484 42.75 267.734 45.25C268.692 48 269.171 50.8542 269.171 53.8125C269.171 56.7708 268.775 59.4583 267.984 61.875C267.192 64.2917 266.046 66.2292 264.546 67.6875C263.129 66.6458 260.567 65.5833 256.859 64.5C253.15 63.4167 249.775 62.875 246.734 62.875C243.692 62.875 241.65 63.0625 240.609 63.4375C239.609 63.8125 239.109 64.3958 239.109 65.1875C239.109 65.5625 239.171 65.9167 239.296 66.25C240.754 65.875 242.629 65.6875 244.921 65.6875C253.046 65.6875 259.671 67.6042 264.796 71.4375C270.838 76.0208 273.859 82.8958 273.859 92.0625C273.859 100.146 270.588 106.854 264.046 112.188C256.963 117.896 247.442 120.75 235.484 120.75C228.9 120.75 223.192 120.25 218.359 119.25C213.525 118.292 208.817 116.583 204.234 114.125C201.109 109.583 199.546 104.979 199.546 100.312C199.546 95.6042 201.15 91.7083 204.359 88.625C207.567 85.5417 211.504 84 216.171 84C220.879 84 224.713 84.9583 227.671 86.875C230.671 88.7917 232.879 91.9167 234.296 96.25ZM305.138 87.4375V88.875C305.138 89.5417 305.159 90.0208 305.201 90.3125C305.617 90.5208 306.076 90.625 306.576 90.625C307.784 90.625 308.388 89.7083 308.388 87.875C308.388 81.75 308.721 75.3958 309.388 68.8125C310.096 62.1875 310.846 57.0833 311.638 53.5C315.013 51.0417 319.513 49.8125 325.138 49.8125C330.763 49.8125 335.096 50.9167 338.138 53.125C341.221 55.2917 342.763 57.9167 342.763 61C342.763 62.2917 341.992 67.625 340.451 77C338.742 86.5417 336.555 96.5833 333.888 107.125C333.346 109.25 332.367 112.229 330.951 116.062C329.576 119.896 328.096 123.083 326.513 125.625C321.555 133.5 315.43 138.375 308.138 140.25C304.721 141.125 301.284 141.562 297.826 141.562C291.117 141.562 285.93 139.896 282.263 136.562C278.888 133.562 277.201 129.833 277.201 125.375C277.201 120.958 278.513 116.792 281.138 112.875C281.763 112.708 282.909 112.625 284.576 112.625C286.242 112.625 288.326 112.833 290.826 113.25C297.742 114.542 301.263 115.188 301.388 115.188C301.68 115.229 301.992 115.292 302.326 115.375C302.701 115.417 303.18 115.438 303.763 115.438C304.346 115.438 304.846 115.271 305.263 114.938C305.68 114.604 305.888 113.938 305.888 112.938L291.138 110.125C287.513 108.625 284.367 105.479 281.701 100.688C278.409 94.7708 276.18 86.75 275.013 76.625C272.263 73.0417 270.888 68.75 270.888 63.75C270.888 58.75 272.138 54.3958 274.638 50.6875H290.701C296.076 50.6875 300.096 52.2292 302.763 55.3125C304.721 57.6042 305.971 60.9583 306.513 65.375C305.596 72.625 305.138 79.9792 305.138 87.4375Z"/>
</mask>
<path d="M93.487 94.125C93.9037 94.125 94.2787 94.0208 94.612 93.8125V88.125C97.4453 86.2083 101.404 84.6458 106.487 83.4375C111.612 82.2292 116.591 81.625 121.424 81.625C123.633 83.875 125.466 87.25 126.924 91.75C128.424 96.2083 129.216 100.25 129.299 103.875C128.466 105.542 127.049 107.333 125.049 109.25C123.091 111.167 120.716 112.938 117.924 114.562C111.008 118.646 103.07 120.688 94.112 120.688C81.2787 120.688 71.1745 116.958 63.7995 109.5C56.1745 101.958 52.362 91.5208 52.362 78.1875C52.362 64.8125 56.5287 54.3125 64.862 46.6875C68.5287 43.2708 72.7995 40.7083 77.6745 39C82.5495 37.25 87.6745 36.375 93.0495 36.375C103.549 36.375 112.154 38.9167 118.862 44C125.57 49.0833 128.924 55.3542 128.924 62.8125C128.924 68.4375 127.195 72.6042 123.737 75.3125C120.279 77.9792 115.591 79.3125 109.674 79.3125C106.424 79.3125 103.154 78.5208 99.862 76.9375C96.5703 75.3125 94.612 73.7917 93.987 72.375C93.987 68.9583 94.0495 66.2708 94.1745 64.3125C94.0912 64.2708 93.9453 64.25 93.737 64.25H93.2995C92.6745 64.25 92.1745 64.4375 91.7995 64.8125C91.4662 65.1458 91.1537 65.875 90.862 67C90.612 68.125 90.487 71.1875 90.487 76.1875C90.487 88.1458 91.487 94.125 93.487 94.125ZM162.454 84.1875V95.125C162.746 95.4167 163.225 95.5625 163.892 95.5625C164.558 95.5625 165.037 95.3333 165.329 94.875C165.621 94.4167 165.767 93.625 165.767 92.5V83.5625C165.767 79.5625 165.6 76.9167 165.267 75.625C164.933 74.2917 164.308 73.625 163.392 73.625C162.808 73.625 162.308 73.8333 161.892 74.25C162.267 78.375 162.454 81.6875 162.454 84.1875ZM139.079 111.875C132.246 105.292 128.829 96.375 128.829 85.125C128.829 73.8333 132.037 64.9375 138.454 58.4375C144.912 51.8958 153.371 48.625 163.829 48.625C174.287 48.625 182.746 52.0208 189.204 58.8125C195.621 65.6042 198.829 74.4583 198.829 85.375C198.829 96.25 195.725 104.896 189.517 111.312C183.35 117.729 174.954 120.938 164.329 120.938C153.704 120.938 145.287 117.917 139.079 111.875ZM234.296 96.25C235.671 96 236.359 95.3125 236.359 94.1875C236.359 93.0208 235.984 91.7292 235.234 90.3125C234.525 88.8542 233.463 87.4792 232.046 86.1875C228.338 82.8542 223.317 81.1875 216.984 81.1875C213.859 81.1875 210.942 81.7083 208.234 82.75C205.359 81.2917 203.067 78.9792 201.359 75.8125C199.65 72.6458 198.796 69.2292 198.796 65.5625C198.796 55.9792 202.796 48.5833 210.796 43.375C217.671 38.9167 226.15 36.6875 236.234 36.6875C243.734 36.6875 250.046 37.5 255.171 39.125C260.296 40.7083 264.484 42.75 267.734 45.25C268.692 48 269.171 50.8542 269.171 53.8125C269.171 56.7708 268.775 59.4583 267.984 61.875C267.192 64.2917 266.046 66.2292 264.546 67.6875C263.129 66.6458 260.567 65.5833 256.859 64.5C253.15 63.4167 249.775 62.875 246.734 62.875C243.692 62.875 241.65 63.0625 240.609 63.4375C239.609 63.8125 239.109 64.3958 239.109 65.1875C239.109 65.5625 239.171 65.9167 239.296 66.25C240.754 65.875 242.629 65.6875 244.921 65.6875C253.046 65.6875 259.671 67.6042 264.796 71.4375C270.838 76.0208 273.859 82.8958 273.859 92.0625C273.859 100.146 270.588 106.854 264.046 112.188C256.963 117.896 247.442 120.75 235.484 120.75C228.9 120.75 223.192 120.25 218.359 119.25C213.525 118.292 208.817 116.583 204.234 114.125C201.109 109.583 199.546 104.979 199.546 100.312C199.546 95.6042 201.15 91.7083 204.359 88.625C207.567 85.5417 211.504 84 216.171 84C220.879 84 224.713 84.9583 227.671 86.875C230.671 88.7917 232.879 91.9167 234.296 96.25ZM305.138 87.4375V88.875C305.138 89.5417 305.159 90.0208 305.201 90.3125C305.617 90.5208 306.076 90.625 306.576 90.625C307.784 90.625 308.388 89.7083 308.388 87.875C308.388 81.75 308.721 75.3958 309.388 68.8125C310.096 62.1875 310.846 57.0833 311.638 53.5C315.013 51.0417 319.513 49.8125 325.138 49.8125C330.763 49.8125 335.096 50.9167 338.138 53.125C341.221 55.2917 342.763 57.9167 342.763 61C342.763 62.2917 341.992 67.625 340.451 77C338.742 86.5417 336.555 96.5833 333.888 107.125C333.346 109.25 332.367 112.229 330.951 116.062C329.576 119.896 328.096 123.083 326.513 125.625C321.555 133.5 315.43 138.375 308.138 140.25C304.721 141.125 301.284 141.562 297.826 141.562C291.117 141.562 285.93 139.896 282.263 136.562C278.888 133.562 277.201 129.833 277.201 125.375C277.201 120.958 278.513 116.792 281.138 112.875C281.763 112.708 282.909 112.625 284.576 112.625C286.242 112.625 288.326 112.833 290.826 113.25C297.742 114.542 301.263 115.188 301.388 115.188C301.68 115.229 301.992 115.292 302.326 115.375C302.701 115.417 303.18 115.438 303.763 115.438C304.346 115.438 304.846 115.271 305.263 114.938C305.68 114.604 305.888 113.938 305.888 112.938L291.138 110.125C287.513 108.625 284.367 105.479 281.701 100.688C278.409 94.7708 276.18 86.75 275.013 76.625C272.263 73.0417 270.888 68.75 270.888 63.75C270.888 58.75 272.138 54.3958 274.638 50.6875H290.701C296.076 50.6875 300.096 52.2292 302.763 55.3125C304.721 57.6042 305.971 60.9583 306.513 65.375C305.596 72.625 305.138 79.9792 305.138 87.4375Z" fill="#0099FF"/>
<path d="M94.612 93.8125L96.202 96.3565L97.612 95.4752V93.8125H94.612ZM94.612 88.125L92.9311 85.6401L91.612 86.5325V88.125H94.612ZM106.487 83.4375L105.799 80.5176L105.793 80.5188L106.487 83.4375ZM121.424 81.625L123.566 79.5236L122.684 78.625H121.424V81.625ZM126.924 91.75L124.071 92.6749L124.076 92.6908L124.081 92.7067L126.924 91.75ZM129.299 103.875L131.983 105.217L132.316 104.551L132.299 103.806L129.299 103.875ZM125.049 109.25L122.974 107.084L122.962 107.095L122.951 107.106L125.049 109.25ZM117.924 114.562L116.415 111.97L116.407 111.974L116.399 111.979L117.924 114.562ZM63.7995 109.5L65.9327 107.391L65.921 107.379L65.9091 107.367L63.7995 109.5ZM64.862 46.6875L66.8872 48.9008L66.8972 48.8916L66.9072 48.8823L64.862 46.6875ZM77.6745 39L78.6666 41.8312L78.6774 41.8274L78.6881 41.8236L77.6745 39ZM123.737 75.3125L125.569 77.6882L125.578 77.6814L125.587 77.6744L123.737 75.3125ZM99.862 76.9375L98.534 79.6276L98.5478 79.6343L98.5616 79.641L99.862 76.9375ZM93.987 72.375H90.987V73.0074L91.2422 73.5859L93.987 72.375ZM94.1745 64.3125L97.1684 64.5036L97.2951 62.5187L95.5161 61.6292L94.1745 64.3125ZM90.862 67L87.958 66.2471L87.9448 66.2979L87.9334 66.3492L90.862 67ZM93.487 97.125C94.4307 97.125 95.3628 96.881 96.202 96.3565L93.022 91.2685C93.0972 91.2215 93.1849 91.1821 93.2778 91.1563C93.3695 91.1308 93.443 91.125 93.487 91.125V97.125ZM97.612 93.8125V88.125H91.612V93.8125H97.612ZM96.2929 90.6099C98.7112 88.974 102.284 87.5203 107.181 86.3562L105.793 80.5188C100.524 81.7714 96.1795 83.4427 92.9311 85.6401L96.2929 90.6099ZM107.175 86.3574C112.095 85.1976 116.843 84.625 121.424 84.625V78.625C116.34 78.625 111.129 79.2607 105.799 80.5176L107.175 86.3574ZM119.283 83.7264C121.044 85.5204 122.69 88.4145 124.071 92.6749L129.778 90.8251C128.242 86.0855 126.221 82.2296 123.566 79.5236L119.283 83.7264ZM124.081 92.7067C125.512 96.9589 126.226 100.695 126.3 103.944L132.299 103.806C132.207 99.8046 131.337 95.4578 129.768 90.7933L124.081 92.7067ZM126.616 102.533C125.992 103.781 124.835 105.301 122.974 107.084L127.125 111.416C129.264 109.366 130.94 107.302 131.983 105.217L126.616 102.533ZM122.951 107.106C121.198 108.822 119.03 110.448 116.415 111.97L119.434 117.155C122.403 115.427 124.984 113.512 127.148 111.394L122.951 107.106ZM116.399 111.979C109.996 115.759 102.597 117.688 94.112 117.688V123.688C103.543 123.688 112.019 121.533 119.45 117.146L116.399 111.979ZM94.112 117.688C81.8893 117.688 72.6228 114.156 65.9327 107.391L61.6663 111.609C69.7262 119.76 80.6681 123.688 94.112 123.688V117.688ZM65.9091 107.367C58.9857 100.519 55.362 90.9261 55.362 78.1875H49.362C49.362 92.1156 53.3633 103.397 61.6899 111.633L65.9091 107.367ZM55.362 78.1875C55.362 65.4854 59.2895 55.8526 66.8872 48.9008L62.8368 44.4742C53.7678 52.7724 49.362 64.1396 49.362 78.1875H55.362ZM66.9072 48.8823C70.2612 45.757 74.1705 43.4068 78.6666 41.8312L76.6824 36.1688C71.4285 38.0099 66.7962 40.7846 62.8168 44.4927L66.9072 48.8823ZM78.6881 41.8236C83.2257 40.1947 88.0068 39.375 93.0495 39.375V33.375C87.3422 33.375 81.8733 34.3053 76.6609 36.1764L78.6881 41.8236ZM93.0495 39.375C103.06 39.375 110.981 41.7919 117.05 46.3911L120.674 41.6089C113.327 36.0414 104.039 33.375 93.0495 33.375V39.375ZM117.05 46.3911C123.12 50.9906 125.924 56.4231 125.924 62.8125H131.924C131.924 54.2852 128.021 47.1761 120.674 41.6089L117.05 46.3911ZM125.924 62.8125C125.924 67.7977 124.423 70.9649 121.887 72.9506L125.587 77.6744C129.968 74.2435 131.924 69.0773 131.924 62.8125H125.924ZM121.905 72.9368C119.13 75.0763 115.161 76.3125 109.674 76.3125V82.3125C116.021 82.3125 121.427 80.882 125.569 77.6882L121.905 72.9368ZM109.674 76.3125C106.928 76.3125 104.099 75.6465 101.162 74.234L98.5616 79.641C102.208 81.3952 105.921 82.3125 109.674 82.3125V76.3125ZM101.19 74.2474C99.6477 73.4861 98.5281 72.8016 97.7646 72.2087C96.9664 71.5889 96.7575 71.2225 96.7318 71.1641L91.2422 73.5859C91.8415 74.9441 92.9242 76.0465 94.0844 76.9475C95.2793 77.8755 96.7846 78.7639 98.534 79.6276L101.19 74.2474ZM96.987 72.375C96.987 68.9829 97.0494 66.3685 97.1684 64.5036L91.1806 64.1214C91.0496 66.1731 90.987 68.9337 90.987 72.375H96.987ZM95.5161 61.6292C94.749 61.2457 93.9716 61.25 93.737 61.25V67.25C93.7523 67.25 93.6902 67.2515 93.5784 67.2355C93.5196 67.2271 93.4267 67.211 93.3109 67.1794C93.1982 67.1487 93.0291 67.0939 92.8329 66.9958L95.5161 61.6292ZM93.737 61.25H93.2995V67.25H93.737V61.25ZM93.2995 61.25C92.0317 61.25 90.7154 61.654 89.6782 62.6912L93.9208 66.9338C93.8033 67.0513 93.6572 67.1441 93.5091 67.1996C93.3702 67.2517 93.2866 67.25 93.2995 67.25V61.25ZM89.6782 62.6912C89.1186 63.2508 88.7757 63.9189 88.5577 64.4276C88.3214 64.979 88.1261 65.5989 87.958 66.2471L93.766 67.7529C93.8896 67.2761 93.9964 66.9689 94.0726 66.7911C94.1094 66.7052 94.1264 66.6794 94.117 66.695C94.1102 66.706 94.0507 66.804 93.9208 66.9338L89.6782 62.6912ZM87.9334 66.3492C87.7426 67.208 87.6449 68.5081 87.5832 70.0183C87.5184 71.6075 87.487 73.6686 87.487 76.1875H93.487C93.487 73.7064 93.5181 71.7362 93.5783 70.263C93.6416 68.7107 93.7314 67.917 93.7906 67.6508L87.9334 66.3492ZM87.487 76.1875C87.487 82.2056 87.7357 86.8924 88.2781 90.1355C88.5443 91.7274 88.9161 93.1992 89.4931 94.3493C90.0132 95.3858 91.2212 97.125 93.487 97.125V91.125C94.7528 91.125 95.0858 92.1168 94.8559 91.6585C94.6829 91.3138 94.4297 90.5435 94.1959 89.1458C93.7383 86.4097 93.487 82.1277 93.487 76.1875H87.487ZM162.454 95.125H159.454V96.3676L160.333 97.2463L162.454 95.125ZM165.267 75.625L162.356 76.3526L162.359 76.3636L162.362 76.3746L165.267 75.625ZM161.892 74.25L159.77 72.1287L158.777 73.1223L158.904 74.5216L161.892 74.25ZM139.079 111.875L141.171 109.725L141.166 109.72L141.16 109.715L139.079 111.875ZM138.454 58.4375L136.319 56.3298L136.319 56.3299L138.454 58.4375ZM189.204 58.8125L191.385 56.7522L191.378 56.7452L189.204 58.8125ZM189.517 111.312L187.36 109.226L187.353 109.234L189.517 111.312ZM159.454 84.1875V95.125H165.454V84.1875H159.454ZM160.333 97.2463C161.449 98.363 162.899 98.5625 163.892 98.5625V92.5625C163.763 92.5625 163.786 92.5467 163.906 92.5831C164.037 92.6231 164.306 92.7342 164.575 93.0037L160.333 97.2463ZM163.892 98.5625C165.316 98.5625 166.888 98.0135 167.86 96.4856L162.798 93.2644C162.946 93.0311 163.177 92.8177 163.457 92.6842C163.711 92.5627 163.888 92.5625 163.892 92.5625V98.5625ZM167.86 96.4856C168.645 95.2526 168.767 93.7015 168.767 92.5H162.767C162.767 92.9461 162.737 93.2323 162.707 93.394C162.693 93.4711 162.683 93.4945 162.689 93.4777C162.694 93.462 162.724 93.3809 162.798 93.2644L167.86 96.4856ZM168.767 92.5V83.5625H162.767V92.5H168.767ZM168.767 83.5625C168.767 79.6287 168.616 76.5974 168.171 74.8754L162.362 76.3746C162.584 77.2359 162.767 79.4963 162.767 83.5625H168.767ZM168.177 74.8974C167.944 73.9654 167.531 72.9208 166.736 72.0732C165.855 71.1328 164.676 70.625 163.392 70.625V76.625C163.249 76.625 163.05 76.5972 162.834 76.5036C162.617 76.4099 162.459 76.2833 162.359 76.1768C162.189 75.9959 162.256 75.9513 162.356 76.3526L168.177 74.8974ZM163.392 70.625C162.003 70.625 160.743 71.1558 159.77 72.1287L164.013 76.3713C163.969 76.4156 163.875 76.4912 163.733 76.5505C163.59 76.6101 163.465 76.625 163.392 76.625V70.625ZM158.904 74.5216C159.275 78.6065 159.454 81.8175 159.454 84.1875H165.454C165.454 81.5575 165.258 78.1435 164.879 73.9784L158.904 74.5216ZM141.16 109.715C135.022 103.801 131.829 95.7235 131.829 85.125H125.829C125.829 97.0265 129.469 106.782 136.998 114.035L141.16 109.715ZM131.829 85.125C131.829 74.4251 134.851 66.3574 140.589 60.5451L136.319 56.3299C129.223 63.5176 125.829 73.2416 125.829 85.125H131.829ZM140.589 60.5452C146.404 54.6548 154.053 51.625 163.829 51.625V45.625C152.689 45.625 143.42 49.1369 136.319 56.3298L140.589 60.5452ZM163.829 51.625C173.571 51.625 181.207 54.7558 187.03 60.8798L191.378 56.7452C184.285 49.2859 175.004 45.625 163.829 45.625V51.625ZM187.023 60.8728C192.826 67.0147 195.829 75.0865 195.829 85.375H201.829C201.829 73.8302 198.415 64.1937 191.385 56.7522L187.023 60.8728ZM195.829 85.375C195.829 95.6514 192.914 103.486 187.36 109.226L191.673 113.399C198.536 106.305 201.829 96.8486 201.829 85.375H195.829ZM187.353 109.234C181.861 114.949 174.308 117.938 164.329 117.938V123.938C175.6 123.938 184.839 120.509 191.68 113.391L187.353 109.234ZM164.329 117.938C154.298 117.938 146.698 115.104 141.171 109.725L136.987 114.025C143.876 120.73 153.11 123.938 164.329 123.938V117.938ZM234.296 96.25L231.445 97.1822L232.258 99.6698L234.833 99.2016L234.296 96.25ZM235.234 90.3125L232.535 91.6232L232.558 91.6701L232.582 91.7162L235.234 90.3125ZM232.046 86.1875L234.067 83.9706L234.059 83.9635L234.052 83.9564L232.046 86.1875ZM208.234 82.75L206.876 85.4255L208.066 86.0288L209.31 85.55L208.234 82.75ZM210.796 43.375L209.164 40.8579L209.159 40.8609L210.796 43.375ZM255.171 39.125L254.264 41.9847L254.275 41.988L254.285 41.9913L255.171 39.125ZM267.734 45.25L270.566 44.2628L270.272 43.4177L269.563 42.8721L267.734 45.25ZM264.546 67.6875L262.769 70.1045L264.816 71.6095L266.637 69.8385L264.546 67.6875ZM240.609 63.4375L239.592 60.6148L239.574 60.6216L239.555 60.6285L240.609 63.4375ZM239.296 66.25L236.487 67.3034L237.433 69.8266L240.043 69.1555L239.296 66.25ZM264.796 71.4375L266.609 69.0474L266.601 69.0413L266.593 69.0352L264.796 71.4375ZM264.046 112.188L265.928 114.523L265.935 114.518L265.942 114.513L264.046 112.188ZM218.359 119.25L218.966 116.312L218.954 116.31L218.942 116.307L218.359 119.25ZM204.234 114.125L201.762 115.826L202.174 116.425L202.816 116.769L204.234 114.125ZM227.671 86.875L226.04 89.3928L226.048 89.3979L226.056 89.4031L227.671 86.875ZM234.833 99.2016C235.869 99.0132 237.038 98.5944 237.964 97.6682C238.96 96.6729 239.359 95.4104 239.359 94.1875H233.359C233.359 94.1627 233.363 94.0485 233.425 93.8853C233.49 93.7137 233.594 93.5528 233.722 93.4256C233.96 93.1868 234.098 93.2368 233.759 93.2984L234.833 99.2016ZM239.359 94.1875C239.359 92.3831 238.782 90.6043 237.885 88.9088L232.582 91.7162C233.185 92.854 233.359 93.6586 233.359 94.1875H239.359ZM237.932 89.0018C237.03 87.1448 235.715 85.4728 234.067 83.9706L230.025 88.4044C231.211 89.4856 232.02 90.5635 232.535 91.6232L237.932 89.0018ZM234.052 83.9564C229.656 80.0053 223.85 78.1875 216.984 78.1875V84.1875C222.783 84.1875 227.019 85.7031 230.04 88.4186L234.052 83.9564ZM216.984 78.1875C213.519 78.1875 210.234 78.7663 207.157 79.95L209.31 85.55C211.649 84.6504 214.198 84.1875 216.984 84.1875V78.1875ZM209.591 80.0745C207.323 78.9244 205.452 77.0818 203.999 74.3881L198.718 77.2369C200.682 80.8765 203.394 83.6589 206.876 85.4255L209.591 80.0745ZM203.999 74.3881C202.531 71.6677 201.796 68.7418 201.796 65.5625H195.796C195.796 69.7165 196.769 73.6239 198.718 77.2369L203.999 74.3881ZM201.796 65.5625C201.796 56.989 205.287 50.5413 212.433 45.8891L209.159 40.8609C200.305 46.6254 195.796 54.9693 195.796 65.5625H201.796ZM212.428 45.8921C218.716 41.8147 226.595 39.6875 236.234 39.6875V33.6875C225.705 33.6875 216.626 36.0186 209.164 40.8579L212.428 45.8921ZM236.234 39.6875C243.538 39.6875 249.523 40.4813 254.264 41.9847L256.078 36.2653C250.569 34.5187 243.929 33.6875 236.234 33.6875V39.6875ZM254.285 41.9913C259.169 43.5 263.01 45.4011 265.904 47.6279L269.563 42.8721C265.957 40.0989 261.423 37.9166 256.057 36.2587L254.285 41.9913ZM264.901 46.2372C265.747 48.6648 266.171 51.1849 266.171 53.8125H272.171C272.171 50.5235 271.637 47.3352 270.566 44.2628L264.901 46.2372ZM266.171 53.8125C266.171 56.5042 265.811 58.8705 265.133 60.9411L270.834 62.8089C271.739 60.0462 272.171 57.0374 272.171 53.8125H266.171ZM265.133 60.9411C264.46 62.9949 263.54 64.4819 262.455 65.5365L266.637 69.8385C268.552 67.9764 269.924 65.5884 270.834 62.8089L265.133 60.9411ZM266.323 65.2705C264.448 63.892 261.439 62.7128 257.7 61.6204L256.017 67.3796C259.695 68.4539 261.81 69.3997 262.769 70.1045L266.323 65.2705ZM257.7 61.6204C253.788 60.4776 250.125 59.875 246.734 59.875V65.875C249.426 65.875 252.512 66.3557 256.017 67.3796L257.7 61.6204ZM246.734 59.875C243.751 59.875 241.198 60.0369 239.592 60.6148L241.625 66.2602C242.103 66.0881 243.632 65.875 246.734 65.875V59.875ZM239.555 60.6285C238.757 60.9279 237.889 61.4072 237.206 62.2039C236.474 63.0571 236.109 64.0993 236.109 65.1875H242.109C242.109 65.3104 242.088 65.4753 242.022 65.658C241.955 65.8421 241.859 65.9944 241.761 66.1086C241.578 66.322 241.46 66.3221 241.662 66.2465L239.555 60.6285ZM236.109 65.1875C236.109 65.9028 236.229 66.6155 236.487 67.3034L242.105 65.1966C242.106 65.2 242.107 65.2035 242.108 65.2067C242.109 65.21 242.11 65.2122 242.11 65.213C242.11 65.2152 242.109 65.2076 242.109 65.1875H236.109ZM240.043 69.1555C241.166 68.8668 242.765 68.6875 244.921 68.6875V62.6875C242.494 62.6875 240.343 62.8832 238.549 63.3445L240.043 69.1555ZM244.921 68.6875C252.574 68.6875 258.518 70.4882 262.999 73.8398L266.593 69.0352C260.824 64.7201 253.518 62.6875 244.921 62.6875V68.6875ZM262.983 73.8276C268.118 77.7231 270.859 83.615 270.859 92.0625H276.859C276.859 82.1766 273.557 74.3185 266.609 69.0474L262.983 73.8276ZM270.859 92.0625C270.859 99.1993 268.029 105.07 262.15 109.862L265.942 114.513C273.147 108.639 276.859 101.092 276.859 92.0625H270.859ZM262.164 109.852C255.761 115.011 246.974 117.75 235.484 117.75V123.75C247.91 123.75 258.164 120.78 265.928 114.523L262.164 109.852ZM235.484 117.75C229.041 117.75 223.546 117.26 218.966 116.312L217.751 122.188C222.838 123.24 228.759 123.75 235.484 123.75V117.75ZM218.942 116.307C214.416 115.41 209.988 113.807 205.652 111.481L202.816 116.769C207.646 119.36 212.634 121.173 217.775 122.193L218.942 116.307ZM206.705 112.424C203.86 108.29 202.546 104.268 202.546 100.312H196.546C196.546 105.69 198.357 110.876 201.762 115.826L206.705 112.424ZM202.546 100.312C202.546 96.3675 203.855 93.27 206.437 90.788L202.28 86.462C198.446 90.1467 196.546 94.8409 196.546 100.312H202.546ZM206.437 90.788C209.057 88.27 212.238 87 216.171 87V81C210.771 81 206.076 82.8133 202.28 86.462L206.437 90.788ZM216.171 87C220.49 87 223.705 87.8802 226.04 89.3928L229.302 84.3572C225.72 82.0364 221.268 81 216.171 81V87ZM226.056 89.4031C228.324 90.8523 230.182 93.3195 231.445 97.1822L237.147 95.3178C235.577 90.5139 233.018 86.731 229.286 84.3469L226.056 89.4031ZM305.201 90.3125L302.231 90.7368L302.453 92.2928L303.859 92.9958L305.201 90.3125ZM309.388 68.8125L306.405 68.4936L306.404 68.5019L306.403 68.5102L309.388 68.8125ZM311.638 53.5L309.872 51.0751L308.954 51.7438L308.709 52.8528L311.638 53.5ZM338.138 53.125L336.375 55.5526L336.394 55.5663L336.413 55.5796L338.138 53.125ZM340.451 77L343.404 77.5287L343.407 77.5078L343.411 77.4868L340.451 77ZM333.888 107.125L336.795 107.866L336.796 107.861L333.888 107.125ZM330.951 116.062L328.137 115.023L328.132 115.036L328.127 115.05L330.951 116.062ZM326.513 125.625L329.052 127.223L329.056 127.217L329.059 127.211L326.513 125.625ZM308.138 140.25L308.882 143.156L308.885 143.155L308.138 140.25ZM282.263 136.562L284.281 134.343L284.269 134.331L284.256 134.32L282.263 136.562ZM281.138 112.875L280.365 109.976L279.274 110.267L278.646 111.205L281.138 112.875ZM290.826 113.25L291.376 110.301L291.348 110.296L291.319 110.291L290.826 113.25ZM301.388 115.188L301.812 112.218L301.601 112.188H301.388V115.188ZM302.326 115.375L301.598 118.285L301.794 118.334L301.994 118.357L302.326 115.375ZM305.263 114.938L303.389 112.595L305.263 114.938ZM305.888 112.938H308.888V110.455L306.45 109.991L305.888 112.938ZM291.138 110.125L289.991 112.897L290.275 113.014L290.576 113.072L291.138 110.125ZM281.701 100.688L279.079 102.146L279.079 102.146L281.701 100.688ZM275.013 76.625L277.993 76.2816L277.898 75.457L277.393 74.7985L275.013 76.625ZM274.638 50.6875V47.6875H273.042L272.15 49.0105L274.638 50.6875ZM302.763 55.3125L305.044 53.3635L305.038 53.3568L305.032 53.35L302.763 55.3125ZM306.513 65.375L309.489 65.7513L309.536 65.3806L309.491 65.0098L306.513 65.375ZM302.138 87.4375V88.875H308.138V87.4375H302.138ZM302.138 88.875C302.138 89.552 302.156 90.2165 302.231 90.7368L308.17 89.8882C308.171 89.8909 308.168 89.8693 308.163 89.8161C308.159 89.7647 308.155 89.6949 308.151 89.6041C308.143 89.4209 308.138 89.1802 308.138 88.875H302.138ZM303.859 92.9958C304.722 93.4275 305.645 93.625 306.576 93.625V87.625C306.555 87.625 306.541 87.6239 306.532 87.623C306.524 87.6222 306.521 87.6213 306.522 87.6215C306.522 87.6216 306.525 87.6224 306.53 87.624C306.534 87.6256 306.539 87.6275 306.542 87.6292L303.859 92.9958ZM306.576 93.625C308.068 93.625 309.52 92.9845 310.44 91.5884C311.216 90.4112 311.388 89.0259 311.388 87.875H305.388C305.388 88.178 305.362 88.3544 305.345 88.4344C305.327 88.5159 305.331 88.4373 305.43 88.2866C305.543 88.1157 305.737 87.9163 306.015 87.776C306.28 87.6416 306.496 87.625 306.576 87.625V93.625ZM311.388 87.875C311.388 81.8586 311.715 75.6056 312.373 69.1148L306.403 68.5102C305.727 75.1861 305.388 81.6414 305.388 87.875H311.388ZM312.371 69.1314C313.075 62.5434 313.812 57.5684 314.567 54.1472L308.709 52.8528C307.881 56.5983 307.117 61.8316 306.405 68.4936L312.371 69.1314ZM313.404 55.9249C316.115 53.9506 319.93 52.8125 325.138 52.8125V46.8125C319.096 46.8125 313.911 48.1327 309.872 51.0751L313.404 55.9249ZM325.138 52.8125C330.428 52.8125 334.044 53.8597 336.375 55.5526L339.901 50.6974C336.149 47.9736 331.098 46.8125 325.138 46.8125V52.8125ZM336.413 55.5796C338.898 57.3257 339.763 59.1158 339.763 61H345.763C345.763 56.7175 343.545 53.2577 339.863 50.6704L336.413 55.5796ZM339.763 61C339.763 61.3797 339.614 62.7867 339.216 65.5396C338.834 68.1779 338.26 71.8328 337.49 76.5132L343.411 77.4868C344.183 72.7922 344.765 69.093 345.154 66.3979C345.527 63.8175 345.763 61.9119 345.763 61H339.763ZM337.497 76.4713C335.803 85.9357 333.631 95.908 330.98 106.389L336.796 107.861C339.478 97.2587 341.681 87.1476 343.404 77.5287L337.497 76.4713ZM330.981 106.384C330.478 108.356 329.542 111.219 328.137 115.023L333.764 117.102C335.192 113.239 336.214 110.144 336.795 107.866L330.981 106.384ZM328.127 115.05C326.8 118.749 325.405 121.729 323.967 124.039L329.059 127.211C330.787 124.437 332.351 121.043 333.774 117.075L328.127 115.05ZM323.974 124.027C319.323 131.414 313.775 135.703 307.391 137.345L308.885 143.155C317.085 141.047 323.786 135.586 329.052 127.223L323.974 124.027ZM307.394 137.344C304.215 138.158 301.028 138.562 297.826 138.562V144.562C301.54 144.562 305.227 144.092 308.882 143.156L307.394 137.344ZM297.826 138.562C291.596 138.562 287.225 137.019 284.281 134.343L280.245 138.782C284.634 142.772 290.638 144.562 297.826 144.562V138.562ZM284.256 134.32C281.512 131.881 280.201 128.964 280.201 125.375H274.201C274.201 130.703 276.264 135.244 280.27 138.805L284.256 134.32ZM280.201 125.375C280.201 121.594 281.313 118.003 283.63 114.545L278.646 111.205C275.713 115.58 274.201 120.323 274.201 125.375H280.201ZM281.911 115.774C281.91 115.774 281.927 115.769 281.966 115.762C282.003 115.755 282.055 115.746 282.124 115.736C282.262 115.717 282.447 115.697 282.684 115.68C283.16 115.645 283.786 115.625 284.576 115.625V109.625C282.932 109.625 281.417 109.696 280.365 109.976L281.911 115.774ZM284.576 115.625C286.015 115.625 287.921 115.807 290.332 116.209L291.319 110.291C288.73 109.859 286.469 109.625 284.576 109.625V115.625ZM290.275 116.199C293.734 116.845 296.347 117.33 298.112 117.654C298.994 117.816 299.669 117.938 300.134 118.02C300.365 118.061 300.553 118.094 300.691 118.117C300.759 118.128 300.827 118.139 300.889 118.148C300.918 118.152 300.961 118.159 301.01 118.164C301.034 118.167 301.072 118.172 301.119 118.176C301.149 118.178 301.254 118.188 301.388 118.188V112.188C301.653 112.188 301.892 112.231 301.761 112.212C301.753 112.211 301.727 112.207 301.673 112.198C301.567 112.18 301.405 112.152 301.181 112.112C300.734 112.033 300.074 111.914 299.195 111.752C297.439 111.43 294.834 110.947 291.376 110.301L290.275 116.199ZM300.964 118.157C301.138 118.182 301.349 118.223 301.598 118.285L303.053 112.465C302.636 112.36 302.221 112.276 301.812 112.218L300.964 118.157ZM301.994 118.357C302.521 118.415 303.122 118.438 303.763 118.438V112.438C303.238 112.438 302.88 112.418 302.657 112.393L301.994 118.357ZM303.763 118.438C304.96 118.438 306.138 118.079 307.137 117.28L303.389 112.595C303.453 112.543 303.537 112.496 303.627 112.466C303.714 112.438 303.766 112.438 303.763 112.438V118.438ZM307.137 117.28C308.691 116.037 308.888 114.11 308.888 112.938H302.888C302.888 113.086 302.88 113.189 302.872 113.253C302.864 113.318 302.858 113.327 302.868 113.293C302.888 113.23 303.006 112.901 303.389 112.595L307.137 117.28ZM306.45 109.991L291.7 107.178L290.576 113.072L305.326 115.884L306.45 109.991ZM292.285 107.353C289.493 106.198 286.788 103.66 284.322 99.2286L279.079 102.146C281.946 107.298 285.533 111.052 289.991 112.897L292.285 107.353ZM284.322 99.229C281.294 93.7854 279.135 86.1939 277.993 76.2816L272.033 76.9684C273.224 87.3061 275.524 95.7562 279.079 102.146L284.322 99.229ZM277.393 74.7985C275.088 71.7954 273.888 68.1642 273.888 63.75H267.888C267.888 69.3358 269.438 74.2879 272.633 78.4515L277.393 74.7985ZM273.888 63.75C273.888 59.2744 274.998 55.5199 277.126 52.3645L272.15 49.0105C269.278 53.2717 267.888 58.2256 267.888 63.75H273.888ZM274.638 53.6875H290.701V47.6875H274.638V53.6875ZM290.701 53.6875C295.499 53.6875 298.565 55.0448 300.494 57.275L305.032 53.35C301.628 49.4136 296.652 47.6875 290.701 47.6875V53.6875ZM300.482 57.2615C301.916 58.9391 303.033 61.6457 303.535 65.7402L309.491 65.0098C308.91 60.271 307.527 56.2692 305.044 53.3635L300.482 57.2615ZM303.537 64.9987C302.604 72.376 302.138 79.8559 302.138 87.4375H308.138C308.138 80.1024 308.589 72.874 309.489 65.7513L303.537 64.9987Z" fill="white" mask="url(#path-1-outside-1_1336_2342)"/>
</svg>
