<svg width="411" height="130" viewBox="0 0 411 130" fill="none" xmlns="http://www.w3.org/2000/svg">
<rect width="411" height="130" fill="white"/>
<mask id="path-1-outside-1_1337_878" maskUnits="userSpaceOnUse" x="58" y="9" width="298" height="112" fill="black">
<rect fill="white" x="58" y="9" width="298" height="112"/>
<path d="M102.987 70.125C103.404 70.125 103.779 70.0208 104.112 69.8125V64.125C106.945 62.2083 110.904 60.6458 115.987 59.4375C121.112 58.2292 126.091 57.625 130.924 57.625C133.133 59.875 134.966 63.25 136.424 67.75C137.924 72.2083 138.716 76.25 138.799 79.875C137.966 81.5417 136.549 83.3333 134.549 85.25C132.591 87.1667 130.216 88.9375 127.424 90.5625C120.508 94.6458 112.57 96.6875 103.612 96.6875C90.7787 96.6875 80.6745 92.9583 73.2995 85.5C65.6745 77.9583 61.862 67.5208 61.862 54.1875C61.862 40.8125 66.0287 30.3125 74.362 22.6875C78.0287 19.2708 82.2995 16.7083 87.1745 15C92.0495 13.25 97.1745 12.375 102.549 12.375C113.049 12.375 121.654 14.9167 128.362 20C135.07 25.0833 138.424 31.3542 138.424 38.8125C138.424 44.4375 136.695 48.6042 133.237 51.3125C129.779 53.9792 125.091 55.3125 119.174 55.3125C115.924 55.3125 112.654 54.5208 109.362 52.9375C106.07 51.3125 104.112 49.7917 103.487 48.375C103.487 44.9583 103.549 42.2708 103.674 40.3125C103.591 40.2708 103.445 40.25 103.237 40.25H102.799C102.174 40.25 101.674 40.4375 101.299 40.8125C100.966 41.1458 100.654 41.875 100.362 43C100.112 44.125 99.987 47.1875 99.987 52.1875C99.987 64.1458 100.987 70.125 102.987 70.125ZM171.954 60.1875V71.125C172.246 71.4167 172.725 71.5625 173.392 71.5625C174.058 71.5625 174.537 71.3333 174.829 70.875C175.121 70.4167 175.267 69.625 175.267 68.5V59.5625C175.267 55.5625 175.1 52.9167 174.767 51.625C174.433 50.2917 173.808 49.625 172.892 49.625C172.308 49.625 171.808 49.8333 171.392 50.25C171.767 54.375 171.954 57.6875 171.954 60.1875ZM148.579 87.875C141.746 81.2917 138.329 72.375 138.329 61.125C138.329 49.8333 141.537 40.9375 147.954 34.4375C154.412 27.8958 162.871 24.625 173.329 24.625C183.787 24.625 192.246 28.0208 198.704 34.8125C205.121 41.6042 208.329 50.4583 208.329 61.375C208.329 72.25 205.225 80.8958 199.017 87.3125C192.85 93.7292 184.454 96.9375 173.829 96.9375C163.204 96.9375 154.787 93.9167 148.579 87.875ZM243.796 72.25C245.171 72 245.859 71.3125 245.859 70.1875C245.859 69.0208 245.484 67.7292 244.734 66.3125C244.025 64.8542 242.963 63.4792 241.546 62.1875C237.838 58.8542 232.817 57.1875 226.484 57.1875C223.359 57.1875 220.442 57.7083 217.734 58.75C214.859 57.2917 212.567 54.9792 210.859 51.8125C209.15 48.6458 208.296 45.2292 208.296 41.5625C208.296 31.9792 212.296 24.5833 220.296 19.375C227.171 14.9167 235.65 12.6875 245.734 12.6875C253.234 12.6875 259.546 13.5 264.671 15.125C269.796 16.7083 273.984 18.75 277.234 21.25C278.192 24 278.671 26.8542 278.671 29.8125C278.671 32.7708 278.275 35.4583 277.484 37.875C276.692 40.2917 275.546 42.2292 274.046 43.6875C272.629 42.6458 270.067 41.5833 266.359 40.5C262.65 39.4167 259.275 38.875 256.234 38.875C253.192 38.875 251.15 39.0625 250.109 39.4375C249.109 39.8125 248.609 40.3958 248.609 41.1875C248.609 41.5625 248.671 41.9167 248.796 42.25C250.254 41.875 252.129 41.6875 254.421 41.6875C262.546 41.6875 269.171 43.6042 274.296 47.4375C280.338 52.0208 283.359 58.8958 283.359 68.0625C283.359 76.1458 280.088 82.8542 273.546 88.1875C266.463 93.8958 256.942 96.75 244.984 96.75C238.4 96.75 232.692 96.25 227.859 95.25C223.025 94.2917 218.317 92.5833 213.734 90.125C210.609 85.5833 209.046 80.9792 209.046 76.3125C209.046 71.6042 210.65 67.7083 213.859 64.625C217.067 61.5417 221.004 60 225.671 60C230.379 60 234.213 60.9583 237.171 62.875C240.171 64.7917 242.379 67.9167 243.796 72.25ZM314.638 63.4375V64.875C314.638 65.5417 314.659 66.0208 314.701 66.3125C315.117 66.5208 315.576 66.625 316.076 66.625C317.284 66.625 317.888 65.7083 317.888 63.875C317.888 57.75 318.221 51.3958 318.888 44.8125C319.596 38.1875 320.346 33.0833 321.138 29.5C324.513 27.0417 329.013 25.8125 334.638 25.8125C340.263 25.8125 344.596 26.9167 347.638 29.125C350.721 31.2917 352.263 33.9167 352.263 37C352.263 38.2917 351.492 43.625 349.951 53C348.242 62.5417 346.055 72.5833 343.388 83.125C342.846 85.25 341.867 88.2292 340.451 92.0625C339.076 95.8958 337.596 99.0833 336.013 101.625C331.055 109.5 324.93 114.375 317.638 116.25C314.221 117.125 310.784 117.562 307.326 117.562C300.617 117.562 295.43 115.896 291.763 112.562C288.388 109.562 286.701 105.833 286.701 101.375C286.701 96.9583 288.013 92.7917 290.638 88.875C291.263 88.7083 292.409 88.625 294.076 88.625C295.742 88.625 297.826 88.8333 300.326 89.25C307.242 90.5417 310.763 91.1875 310.888 91.1875C311.18 91.2292 311.492 91.2917 311.826 91.375C312.201 91.4167 312.68 91.4375 313.263 91.4375C313.846 91.4375 314.346 91.2708 314.763 90.9375C315.18 90.6042 315.388 89.9375 315.388 88.9375L300.638 86.125C297.013 84.625 293.867 81.4792 291.201 76.6875C287.909 70.7708 285.68 62.75 284.513 52.625C281.763 49.0417 280.388 44.75 280.388 39.75C280.388 34.75 281.638 30.3958 284.138 26.6875H300.201C305.576 26.6875 309.596 28.2292 312.263 31.3125C314.221 33.6042 315.471 36.9583 316.013 41.375C315.096 48.625 314.638 55.9792 314.638 63.4375Z"/>
</mask>
<path d="M102.987 70.125C103.404 70.125 103.779 70.0208 104.112 69.8125V64.125C106.945 62.2083 110.904 60.6458 115.987 59.4375C121.112 58.2292 126.091 57.625 130.924 57.625C133.133 59.875 134.966 63.25 136.424 67.75C137.924 72.2083 138.716 76.25 138.799 79.875C137.966 81.5417 136.549 83.3333 134.549 85.25C132.591 87.1667 130.216 88.9375 127.424 90.5625C120.508 94.6458 112.57 96.6875 103.612 96.6875C90.7787 96.6875 80.6745 92.9583 73.2995 85.5C65.6745 77.9583 61.862 67.5208 61.862 54.1875C61.862 40.8125 66.0287 30.3125 74.362 22.6875C78.0287 19.2708 82.2995 16.7083 87.1745 15C92.0495 13.25 97.1745 12.375 102.549 12.375C113.049 12.375 121.654 14.9167 128.362 20C135.07 25.0833 138.424 31.3542 138.424 38.8125C138.424 44.4375 136.695 48.6042 133.237 51.3125C129.779 53.9792 125.091 55.3125 119.174 55.3125C115.924 55.3125 112.654 54.5208 109.362 52.9375C106.07 51.3125 104.112 49.7917 103.487 48.375C103.487 44.9583 103.549 42.2708 103.674 40.3125C103.591 40.2708 103.445 40.25 103.237 40.25H102.799C102.174 40.25 101.674 40.4375 101.299 40.8125C100.966 41.1458 100.654 41.875 100.362 43C100.112 44.125 99.987 47.1875 99.987 52.1875C99.987 64.1458 100.987 70.125 102.987 70.125ZM171.954 60.1875V71.125C172.246 71.4167 172.725 71.5625 173.392 71.5625C174.058 71.5625 174.537 71.3333 174.829 70.875C175.121 70.4167 175.267 69.625 175.267 68.5V59.5625C175.267 55.5625 175.1 52.9167 174.767 51.625C174.433 50.2917 173.808 49.625 172.892 49.625C172.308 49.625 171.808 49.8333 171.392 50.25C171.767 54.375 171.954 57.6875 171.954 60.1875ZM148.579 87.875C141.746 81.2917 138.329 72.375 138.329 61.125C138.329 49.8333 141.537 40.9375 147.954 34.4375C154.412 27.8958 162.871 24.625 173.329 24.625C183.787 24.625 192.246 28.0208 198.704 34.8125C205.121 41.6042 208.329 50.4583 208.329 61.375C208.329 72.25 205.225 80.8958 199.017 87.3125C192.85 93.7292 184.454 96.9375 173.829 96.9375C163.204 96.9375 154.787 93.9167 148.579 87.875ZM243.796 72.25C245.171 72 245.859 71.3125 245.859 70.1875C245.859 69.0208 245.484 67.7292 244.734 66.3125C244.025 64.8542 242.963 63.4792 241.546 62.1875C237.838 58.8542 232.817 57.1875 226.484 57.1875C223.359 57.1875 220.442 57.7083 217.734 58.75C214.859 57.2917 212.567 54.9792 210.859 51.8125C209.15 48.6458 208.296 45.2292 208.296 41.5625C208.296 31.9792 212.296 24.5833 220.296 19.375C227.171 14.9167 235.65 12.6875 245.734 12.6875C253.234 12.6875 259.546 13.5 264.671 15.125C269.796 16.7083 273.984 18.75 277.234 21.25C278.192 24 278.671 26.8542 278.671 29.8125C278.671 32.7708 278.275 35.4583 277.484 37.875C276.692 40.2917 275.546 42.2292 274.046 43.6875C272.629 42.6458 270.067 41.5833 266.359 40.5C262.65 39.4167 259.275 38.875 256.234 38.875C253.192 38.875 251.15 39.0625 250.109 39.4375C249.109 39.8125 248.609 40.3958 248.609 41.1875C248.609 41.5625 248.671 41.9167 248.796 42.25C250.254 41.875 252.129 41.6875 254.421 41.6875C262.546 41.6875 269.171 43.6042 274.296 47.4375C280.338 52.0208 283.359 58.8958 283.359 68.0625C283.359 76.1458 280.088 82.8542 273.546 88.1875C266.463 93.8958 256.942 96.75 244.984 96.75C238.4 96.75 232.692 96.25 227.859 95.25C223.025 94.2917 218.317 92.5833 213.734 90.125C210.609 85.5833 209.046 80.9792 209.046 76.3125C209.046 71.6042 210.65 67.7083 213.859 64.625C217.067 61.5417 221.004 60 225.671 60C230.379 60 234.213 60.9583 237.171 62.875C240.171 64.7917 242.379 67.9167 243.796 72.25ZM314.638 63.4375V64.875C314.638 65.5417 314.659 66.0208 314.701 66.3125C315.117 66.5208 315.576 66.625 316.076 66.625C317.284 66.625 317.888 65.7083 317.888 63.875C317.888 57.75 318.221 51.3958 318.888 44.8125C319.596 38.1875 320.346 33.0833 321.138 29.5C324.513 27.0417 329.013 25.8125 334.638 25.8125C340.263 25.8125 344.596 26.9167 347.638 29.125C350.721 31.2917 352.263 33.9167 352.263 37C352.263 38.2917 351.492 43.625 349.951 53C348.242 62.5417 346.055 72.5833 343.388 83.125C342.846 85.25 341.867 88.2292 340.451 92.0625C339.076 95.8958 337.596 99.0833 336.013 101.625C331.055 109.5 324.93 114.375 317.638 116.25C314.221 117.125 310.784 117.562 307.326 117.562C300.617 117.562 295.43 115.896 291.763 112.562C288.388 109.562 286.701 105.833 286.701 101.375C286.701 96.9583 288.013 92.7917 290.638 88.875C291.263 88.7083 292.409 88.625 294.076 88.625C295.742 88.625 297.826 88.8333 300.326 89.25C307.242 90.5417 310.763 91.1875 310.888 91.1875C311.18 91.2292 311.492 91.2917 311.826 91.375C312.201 91.4167 312.68 91.4375 313.263 91.4375C313.846 91.4375 314.346 91.2708 314.763 90.9375C315.18 90.6042 315.388 89.9375 315.388 88.9375L300.638 86.125C297.013 84.625 293.867 81.4792 291.201 76.6875C287.909 70.7708 285.68 62.75 284.513 52.625C281.763 49.0417 280.388 44.75 280.388 39.75C280.388 34.75 281.638 30.3958 284.138 26.6875H300.201C305.576 26.6875 309.596 28.2292 312.263 31.3125C314.221 33.6042 315.471 36.9583 316.013 41.375C315.096 48.625 314.638 55.9792 314.638 63.4375Z" fill="#0099FF"/>
<path d="M104.112 69.8125L105.702 72.3565L107.112 71.4752V69.8125H104.112ZM104.112 64.125L102.431 61.6401L101.112 62.5325V64.125H104.112ZM115.987 59.4375L115.299 56.5176L115.293 56.5188L115.987 59.4375ZM130.924 57.625L133.066 55.5236L132.184 54.625H130.924V57.625ZM136.424 67.75L133.571 68.6749L133.576 68.6908L133.581 68.7067L136.424 67.75ZM138.799 79.875L141.483 81.2166L141.816 80.5506L141.799 79.8061L138.799 79.875ZM134.549 85.25L132.474 83.084L132.462 83.095L132.451 83.106L134.549 85.25ZM127.424 90.5625L125.915 87.9698L125.907 87.9744L125.899 87.9791L127.424 90.5625ZM73.2995 85.5L75.4327 83.3906L75.421 83.3788L75.4091 83.3671L73.2995 85.5ZM74.362 22.6875L76.3872 24.9008L76.3972 24.8916L76.4072 24.8823L74.362 22.6875ZM87.1745 15L88.1666 17.8312L88.1774 17.8274L88.1881 17.8236L87.1745 15ZM133.237 51.3125L135.069 53.6882L135.078 53.6814L135.087 53.6744L133.237 51.3125ZM109.362 52.9375L108.034 55.6276L108.048 55.6343L108.062 55.641L109.362 52.9375ZM103.487 48.375H100.487V49.0074L100.742 49.5859L103.487 48.375ZM103.674 40.3125L106.668 40.5036L106.795 38.5187L105.016 37.6292L103.674 40.3125ZM100.362 43L97.458 42.2471L97.4448 42.2979L97.4334 42.3492L100.362 43ZM102.987 73.125C103.931 73.125 104.863 72.881 105.702 72.3565L102.522 67.2685C102.597 67.2215 102.685 67.1821 102.778 67.1563C102.87 67.1308 102.943 67.125 102.987 67.125V73.125ZM107.112 69.8125V64.125H101.112V69.8125H107.112ZM105.793 66.6099C108.211 64.974 111.784 63.5203 116.681 62.3562L115.293 56.5188C110.024 57.7714 105.679 59.4427 102.431 61.6401L105.793 66.6099ZM116.675 62.3574C121.595 61.1976 126.343 60.625 130.924 60.625V54.625C125.84 54.625 120.629 55.2607 115.299 56.5176L116.675 62.3574ZM128.783 59.7264C130.544 61.5204 132.19 64.4145 133.571 68.6749L139.278 66.8251C137.742 62.0855 135.721 58.2296 133.066 55.5236L128.783 59.7264ZM133.581 68.7067C135.012 72.9589 135.726 76.6954 135.8 79.9439L141.799 79.8061C141.707 75.8046 140.837 71.4578 139.268 66.7933L133.581 68.7067ZM136.116 78.5334C135.492 79.7815 134.335 81.3008 132.474 83.084L136.625 87.416C138.764 85.3658 140.44 83.3018 141.483 81.2166L136.116 78.5334ZM132.451 83.106C130.698 84.8217 128.53 86.4479 125.915 87.9698L128.934 93.1552C131.903 91.4271 134.484 89.5116 136.648 87.394L132.451 83.106ZM125.899 87.9791C119.496 91.7592 112.097 93.6875 103.612 93.6875V99.6875C113.043 99.6875 121.519 97.5325 128.95 93.1459L125.899 87.9791ZM103.612 93.6875C91.3893 93.6875 82.1228 90.1563 75.4327 83.3906L71.1663 87.6094C79.2262 95.7604 90.1681 99.6875 103.612 99.6875V93.6875ZM75.4091 83.3671C68.4857 76.5193 64.862 66.9261 64.862 54.1875H58.862C58.862 68.1156 62.8633 79.3974 71.1899 87.6329L75.4091 83.3671ZM64.862 54.1875C64.862 41.4854 68.7895 31.8526 76.3872 24.9008L72.3368 20.4742C63.2678 28.7724 58.862 40.1396 58.862 54.1875H64.862ZM76.4072 24.8823C79.7612 21.757 83.6705 19.4068 88.1666 17.8312L86.1824 12.1688C80.9285 14.0099 76.2962 16.7846 72.3168 20.4927L76.4072 24.8823ZM88.1881 17.8236C92.7257 16.1947 97.5068 15.375 102.549 15.375V9.375C96.8422 9.375 91.3733 10.3053 86.1609 12.1764L88.1881 17.8236ZM102.549 15.375C112.56 15.375 120.481 17.7919 126.55 22.3911L130.174 17.6089C122.827 12.0414 113.539 9.375 102.549 9.375V15.375ZM126.55 22.3911C132.62 26.9906 135.424 32.4231 135.424 38.8125H141.424C141.424 30.2852 137.521 23.1761 130.174 17.6089L126.55 22.3911ZM135.424 38.8125C135.424 43.7977 133.923 46.9649 131.387 48.9506L135.087 53.6744C139.468 50.2435 141.424 45.0773 141.424 38.8125H135.424ZM131.405 48.9368C128.63 51.0763 124.661 52.3125 119.174 52.3125V58.3125C125.521 58.3125 130.927 56.882 135.069 53.6882L131.405 48.9368ZM119.174 52.3125C116.428 52.3125 113.599 51.6465 110.662 50.234L108.062 55.641C111.708 57.3952 115.421 58.3125 119.174 58.3125V52.3125ZM110.69 50.2474C109.148 49.4861 108.028 48.8016 107.265 48.2087C106.466 47.5889 106.258 47.2225 106.232 47.1641L100.742 49.5859C101.341 50.9441 102.424 52.0465 103.584 52.9475C104.779 53.8755 106.285 54.7639 108.034 55.6276L110.69 50.2474ZM106.487 48.375C106.487 44.9829 106.549 42.3685 106.668 40.5036L100.681 40.1214C100.55 42.1731 100.487 44.9337 100.487 48.375H106.487ZM105.016 37.6292C104.249 37.2457 103.472 37.25 103.237 37.25V43.25C103.252 43.25 103.19 43.2515 103.078 43.2355C103.02 43.2271 102.927 43.211 102.811 43.1794C102.698 43.1487 102.529 43.0939 102.333 42.9958L105.016 37.6292ZM103.237 37.25H102.799V43.25H103.237V37.25ZM102.799 37.25C101.532 37.25 100.215 37.654 99.1782 38.6912L103.421 42.9338C103.303 43.0513 103.157 43.1441 103.009 43.1996C102.87 43.2517 102.787 43.25 102.799 43.25V37.25ZM99.1782 38.6912C98.6186 39.2508 98.2757 39.9189 98.0577 40.4276C97.8214 40.979 97.6261 41.5989 97.458 42.2471L103.266 43.7529C103.39 43.2761 103.496 42.9689 103.573 42.7911C103.609 42.7052 103.626 42.6794 103.617 42.695C103.61 42.706 103.551 42.804 103.421 42.9338L99.1782 38.6912ZM97.4334 42.3492C97.2426 43.208 97.1449 44.5081 97.0832 46.0183C97.0184 47.6075 96.987 49.6686 96.987 52.1875H102.987C102.987 49.7064 103.018 47.7362 103.078 46.263C103.142 44.7107 103.231 43.917 103.291 43.6508L97.4334 42.3492ZM96.987 52.1875C96.987 58.2056 97.2357 62.8924 97.7781 66.1355C98.0443 67.7274 98.4161 69.1992 98.9931 70.3493C99.5132 71.3858 100.721 73.125 102.987 73.125V67.125C104.253 67.125 104.586 68.1168 104.356 67.6585C104.183 67.3138 103.93 66.5435 103.696 65.1458C103.238 62.4097 102.987 58.1277 102.987 52.1875H96.987ZM171.954 71.125H168.954V72.3676L169.833 73.2463L171.954 71.125ZM174.767 51.625L171.856 52.3526L171.859 52.3636L171.862 52.3746L174.767 51.625ZM171.392 50.25L169.27 48.1287L168.277 49.1223L168.404 50.5216L171.392 50.25ZM148.579 87.875L150.671 85.725L150.666 85.7198L150.66 85.7145L148.579 87.875ZM147.954 34.4375L145.819 32.3298L145.819 32.3299L147.954 34.4375ZM198.704 34.8125L200.885 32.7522L200.878 32.7452L198.704 34.8125ZM199.017 87.3125L196.86 85.2265L196.853 85.2337L199.017 87.3125ZM168.954 60.1875V71.125H174.954V60.1875H168.954ZM169.833 73.2463C170.949 74.363 172.399 74.5625 173.392 74.5625V68.5625C173.263 68.5625 173.286 68.5467 173.406 68.5831C173.537 68.6231 173.806 68.7342 174.075 69.0037L169.833 73.2463ZM173.392 74.5625C174.816 74.5625 176.388 74.0135 177.36 72.4856L172.298 69.2644C172.446 69.0311 172.677 68.8177 172.957 68.6842C173.211 68.5627 173.388 68.5625 173.392 68.5625V74.5625ZM177.36 72.4856C178.145 71.2526 178.267 69.7015 178.267 68.5H172.267C172.267 68.9461 172.237 69.2323 172.207 69.394C172.193 69.4711 172.183 69.4945 172.189 69.4777C172.194 69.462 172.224 69.3809 172.298 69.2644L177.36 72.4856ZM178.267 68.5V59.5625H172.267V68.5H178.267ZM178.267 59.5625C178.267 55.6287 178.116 52.5974 177.671 50.8754L171.862 52.3746C172.084 53.2359 172.267 55.4963 172.267 59.5625H178.267ZM177.677 50.8974C177.444 49.9654 177.031 48.9208 176.236 48.0732C175.355 47.1328 174.176 46.625 172.892 46.625V52.625C172.749 52.625 172.55 52.5972 172.334 52.5036C172.117 52.4099 171.959 52.2833 171.859 52.1768C171.69 51.9959 171.756 51.9513 171.856 52.3526L177.677 50.8974ZM172.892 46.625C171.503 46.625 170.243 47.1558 169.27 48.1287L173.513 52.3713C173.469 52.4156 173.375 52.4912 173.233 52.5505C173.09 52.6101 172.965 52.625 172.892 52.625V46.625ZM168.404 50.5216C168.775 54.6065 168.954 57.8175 168.954 60.1875H174.954C174.954 57.5575 174.758 54.1435 174.379 49.9784L168.404 50.5216ZM150.66 85.7145C144.522 79.8009 141.329 71.7235 141.329 61.125H135.329C135.329 73.0265 138.969 82.7825 146.498 90.0355L150.66 85.7145ZM141.329 61.125C141.329 50.4251 144.351 42.3574 150.089 36.5451L145.819 32.3299C138.723 39.5176 135.329 49.2416 135.329 61.125H141.329ZM150.089 36.5452C155.904 30.6548 163.553 27.625 173.329 27.625V21.625C162.189 21.625 152.92 25.1369 145.819 32.3298L150.089 36.5452ZM173.329 27.625C183.071 27.625 190.707 30.7558 196.53 36.8798L200.878 32.7452C193.785 25.2859 184.504 21.625 173.329 21.625V27.625ZM196.523 36.8728C202.326 43.0147 205.329 51.0865 205.329 61.375H211.329C211.329 49.8302 207.915 40.1937 200.885 32.7522L196.523 36.8728ZM205.329 61.375C205.329 71.6514 202.414 79.4865 196.86 85.2265L201.173 89.3985C208.036 82.3052 211.329 72.8486 211.329 61.375H205.329ZM196.853 85.2337C191.361 90.9491 183.808 93.9375 173.829 93.9375V99.9375C185.1 99.9375 194.339 96.5092 201.18 89.3913L196.853 85.2337ZM173.829 93.9375C163.798 93.9375 156.198 91.1036 150.671 85.725L146.487 90.025C153.376 96.7297 162.61 99.9375 173.829 99.9375V93.9375ZM243.796 72.25L240.945 73.1822L241.758 75.6698L244.333 75.2016L243.796 72.25ZM244.734 66.3125L242.035 67.6232L242.058 67.6701L242.082 67.7162L244.734 66.3125ZM241.546 62.1875L243.567 59.9706L243.559 59.9635L243.552 59.9564L241.546 62.1875ZM217.734 58.75L216.376 61.4255L217.566 62.0288L218.81 61.55L217.734 58.75ZM220.296 19.375L218.664 16.8579L218.659 16.8609L220.296 19.375ZM264.671 15.125L263.764 17.9847L263.775 17.988L263.785 17.9913L264.671 15.125ZM277.234 21.25L280.066 20.2628L279.772 19.4177L279.063 18.8721L277.234 21.25ZM274.046 43.6875L272.269 46.1045L274.316 47.6095L276.137 45.8385L274.046 43.6875ZM250.109 39.4375L249.092 36.6148L249.074 36.6216L249.055 36.6285L250.109 39.4375ZM248.796 42.25L245.987 43.3034L246.933 45.8266L249.543 45.1555L248.796 42.25ZM274.296 47.4375L276.109 45.0474L276.101 45.0413L276.093 45.0352L274.296 47.4375ZM273.546 88.1875L275.428 90.5234L275.435 90.518L275.442 90.5127L273.546 88.1875ZM227.859 95.25L228.466 92.3122L228.454 92.3097L228.442 92.3073L227.859 95.25ZM213.734 90.125L211.262 91.8255L211.674 92.4249L212.316 92.7687L213.734 90.125ZM237.171 62.875L235.54 65.3928L235.548 65.3979L235.556 65.4031L237.171 62.875ZM244.333 75.2016C245.369 75.0132 246.538 74.5944 247.464 73.6682C248.46 72.6729 248.859 71.4104 248.859 70.1875H242.859C242.859 70.1627 242.863 70.0485 242.925 69.8853C242.99 69.7137 243.094 69.5528 243.222 69.4256C243.46 69.1868 243.598 69.2368 243.259 69.2984L244.333 75.2016ZM248.859 70.1875C248.859 68.3831 248.282 66.6043 247.385 64.9088L242.082 67.7162C242.685 68.854 242.859 69.6586 242.859 70.1875H248.859ZM247.432 65.0018C246.53 63.1448 245.215 61.4728 243.567 59.9706L239.525 64.4044C240.711 65.4856 241.52 66.5635 242.035 67.6232L247.432 65.0018ZM243.552 59.9564C239.156 56.0053 233.35 54.1875 226.484 54.1875V60.1875C232.283 60.1875 236.519 61.7031 239.54 64.4186L243.552 59.9564ZM226.484 54.1875C223.019 54.1875 219.734 54.7663 216.657 55.95L218.81 61.55C221.149 60.6504 223.698 60.1875 226.484 60.1875V54.1875ZM219.091 56.0745C216.823 54.9244 214.952 53.0818 213.499 50.3881L208.218 53.2369C210.182 56.8765 212.894 59.6589 216.376 61.4255L219.091 56.0745ZM213.499 50.3881C212.031 47.6677 211.296 44.7418 211.296 41.5625H205.296C205.296 45.7165 206.269 49.6239 208.218 53.2369L213.499 50.3881ZM211.296 41.5625C211.296 32.989 214.787 26.5413 221.933 21.8891L218.659 16.8609C209.805 22.6254 205.296 30.9693 205.296 41.5625H211.296ZM221.928 21.8921C228.216 17.8147 236.095 15.6875 245.734 15.6875V9.6875C235.205 9.6875 226.126 12.0186 218.664 16.8579L221.928 21.8921ZM245.734 15.6875C253.038 15.6875 259.023 16.4813 263.764 17.9847L265.578 12.2653C260.069 10.5187 253.429 9.6875 245.734 9.6875V15.6875ZM263.785 17.9913C268.669 19.5 272.51 21.4011 275.404 23.6279L279.063 18.8721C275.457 16.0989 270.923 13.9166 265.557 12.2587L263.785 17.9913ZM274.401 22.2372C275.247 24.6648 275.671 27.1849 275.671 29.8125H281.671C281.671 26.5235 281.137 23.3352 280.066 20.2628L274.401 22.2372ZM275.671 29.8125C275.671 32.5042 275.311 34.8705 274.633 36.9411L280.334 38.8089C281.239 36.0462 281.671 33.0374 281.671 29.8125H275.671ZM274.633 36.9411C273.96 38.9949 273.04 40.4819 271.955 41.5365L276.137 45.8385C278.052 43.9764 279.424 41.5884 280.334 38.8089L274.633 36.9411ZM275.823 41.2705C273.948 39.892 270.939 38.7128 267.2 37.6204L265.517 43.3796C269.195 44.4539 271.31 45.3997 272.269 46.1045L275.823 41.2705ZM267.2 37.6204C263.288 36.4776 259.625 35.875 256.234 35.875V41.875C258.926 41.875 262.012 42.3557 265.517 43.3796L267.2 37.6204ZM256.234 35.875C253.251 35.875 250.698 36.0369 249.092 36.6148L251.125 42.2602C251.603 42.0881 253.132 41.875 256.234 41.875V35.875ZM249.055 36.6285C248.257 36.9279 247.389 37.4072 246.706 38.2039C245.974 39.0571 245.609 40.0993 245.609 41.1875H251.609C251.609 41.3104 251.588 41.4753 251.522 41.658C251.455 41.8421 251.359 41.9944 251.261 42.1086C251.078 42.322 250.96 42.3221 251.162 42.2465L249.055 36.6285ZM245.609 41.1875C245.609 41.9028 245.729 42.6155 245.987 43.3034L251.605 41.1966C251.606 41.2 251.607 41.2035 251.608 41.2067C251.609 41.21 251.61 41.2122 251.61 41.213C251.61 41.2152 251.609 41.2076 251.609 41.1875H245.609ZM249.543 45.1555C250.666 44.8668 252.265 44.6875 254.421 44.6875V38.6875C251.994 38.6875 249.843 38.8832 248.049 39.3445L249.543 45.1555ZM254.421 44.6875C262.074 44.6875 268.018 46.4882 272.499 49.8398L276.093 45.0352C270.324 40.7201 263.018 38.6875 254.421 38.6875V44.6875ZM272.483 49.8276C277.618 53.7231 280.359 59.615 280.359 68.0625H286.359C286.359 58.1766 283.057 50.3185 276.109 45.0474L272.483 49.8276ZM280.359 68.0625C280.359 75.1993 277.529 81.0697 271.65 85.8623L275.442 90.5127C282.647 84.6386 286.359 77.0924 286.359 68.0625H280.359ZM271.664 85.8516C265.261 91.0114 256.474 93.75 244.984 93.75V99.75C257.41 99.75 267.664 96.7803 275.428 90.5234L271.664 85.8516ZM244.984 93.75C238.541 93.75 233.046 93.2598 228.466 92.3122L227.251 98.1878C232.338 99.2402 238.259 99.75 244.984 99.75V93.75ZM228.442 92.3073C223.916 91.4099 219.488 89.807 215.152 87.4813L212.316 92.7687C217.146 95.3597 222.134 97.1735 227.275 98.1927L228.442 92.3073ZM216.205 88.4245C213.36 84.2902 212.046 80.2682 212.046 76.3125H206.046C206.046 81.6901 207.857 86.8764 211.262 91.8255L216.205 88.4245ZM212.046 76.3125C212.046 72.3675 213.355 69.27 215.937 66.788L211.78 62.462C207.946 66.1467 206.046 70.8409 206.046 76.3125H212.046ZM215.937 66.788C218.557 64.27 221.738 63 225.671 63V57C220.271 57 215.576 58.8133 211.78 62.462L215.937 66.788ZM225.671 63C229.99 63 233.205 63.8802 235.54 65.3928L238.802 60.3572C235.22 58.0364 230.768 57 225.671 57V63ZM235.556 65.4031C237.824 66.8523 239.682 69.3195 240.945 73.1822L246.647 71.3178C245.077 66.5139 242.518 62.731 238.786 60.3469L235.556 65.4031ZM314.701 66.3125L311.731 66.7368L311.953 68.2928L313.359 68.9958L314.701 66.3125ZM318.888 44.8125L315.905 44.4936L315.904 44.5019L315.903 44.5102L318.888 44.8125ZM321.138 29.5L319.372 27.0751L318.454 27.7438L318.209 28.8528L321.138 29.5ZM347.638 29.125L345.875 31.5526L345.894 31.5663L345.913 31.5796L347.638 29.125ZM349.951 53L352.904 53.5287L352.907 53.5078L352.911 53.4868L349.951 53ZM343.388 83.125L346.295 83.866L346.296 83.8607L343.388 83.125ZM340.451 92.0625L337.637 91.0225L337.632 91.0361L337.627 91.0496L340.451 92.0625ZM336.013 101.625L338.552 103.223L338.556 103.217L338.559 103.211L336.013 101.625ZM317.638 116.25L318.382 119.156L318.385 119.155L317.638 116.25ZM291.763 112.562L293.781 110.343L293.769 110.331L293.756 110.32L291.763 112.562ZM290.638 88.875L289.865 85.9763L288.774 86.2671L288.146 87.2048L290.638 88.875ZM300.326 89.25L300.876 86.301L300.848 86.2956L300.819 86.2908L300.326 89.25ZM310.888 91.1875L311.312 88.2177L311.101 88.1875H310.888V91.1875ZM311.826 91.375L311.098 94.2854L311.294 94.3344L311.494 94.3567L311.826 91.375ZM314.763 90.9375L312.889 88.5949L314.763 90.9375ZM315.388 88.9375H318.388V86.4555L315.95 85.9906L315.388 88.9375ZM300.638 86.125L299.491 88.8971L299.775 89.0144L300.076 89.0719L300.638 86.125ZM291.201 76.6875L288.579 78.146L288.579 78.1464L291.201 76.6875ZM284.513 52.625L287.493 52.2816L287.398 51.457L286.893 50.7985L284.513 52.625ZM284.138 26.6875V23.6875H282.542L281.65 25.0105L284.138 26.6875ZM312.263 31.3125L314.544 29.3635L314.538 29.3568L314.532 29.35L312.263 31.3125ZM316.013 41.375L318.989 41.7513L319.036 41.3806L318.991 41.0098L316.013 41.375ZM311.638 63.4375V64.875H317.638V63.4375H311.638ZM311.638 64.875C311.638 65.552 311.656 66.2165 311.731 66.7368L317.67 65.8882C317.671 65.8909 317.668 65.8693 317.663 65.8161C317.659 65.7647 317.655 65.6949 317.651 65.6041C317.643 65.4209 317.638 65.1802 317.638 64.875H311.638ZM313.359 68.9958C314.222 69.4275 315.145 69.625 316.076 69.625V63.625C316.055 63.625 316.041 63.6239 316.032 63.623C316.024 63.6222 316.021 63.6213 316.022 63.6215C316.022 63.6216 316.025 63.6224 316.03 63.624C316.034 63.6256 316.039 63.6275 316.042 63.6292L313.359 68.9958ZM316.076 69.625C317.568 69.625 319.02 68.9845 319.94 67.5884C320.716 66.4112 320.888 65.0259 320.888 63.875H314.888C314.888 64.178 314.862 64.3544 314.845 64.4344C314.827 64.5159 314.831 64.4373 314.93 64.2866C315.043 64.1157 315.237 63.9163 315.515 63.776C315.78 63.6416 315.996 63.625 316.076 63.625V69.625ZM320.888 63.875C320.888 57.8586 321.215 51.6056 321.873 45.1148L315.903 44.5102C315.227 51.1861 314.888 57.6414 314.888 63.875H320.888ZM321.871 45.1314C322.575 38.5434 323.312 33.5684 324.067 30.1472L318.209 28.8528C317.381 32.5983 316.617 37.8316 315.905 44.4936L321.871 45.1314ZM322.904 31.9249C325.615 29.9506 329.43 28.8125 334.638 28.8125V22.8125C328.596 22.8125 323.411 24.1327 319.372 27.0751L322.904 31.9249ZM334.638 28.8125C339.928 28.8125 343.544 29.8597 345.875 31.5526L349.401 26.6974C345.649 23.9736 340.598 22.8125 334.638 22.8125V28.8125ZM345.913 31.5796C348.398 33.3257 349.263 35.1158 349.263 37H355.263C355.263 32.7175 353.045 29.2577 349.363 26.6704L345.913 31.5796ZM349.263 37C349.263 37.3797 349.114 38.7867 348.716 41.5396C348.334 44.1779 347.76 47.8328 346.99 52.5132L352.911 53.4868C353.683 48.7922 354.265 45.093 354.654 42.3979C355.027 39.8175 355.263 37.9119 355.263 37H349.263ZM346.997 52.4713C345.303 61.9357 343.131 71.908 340.48 82.3893L346.296 83.8607C348.978 73.2587 351.181 63.1476 352.904 53.5287L346.997 52.4713ZM340.481 82.384C339.978 84.3559 339.042 87.2191 337.637 91.0225L343.264 93.1025C344.692 89.2393 345.714 86.1441 346.295 83.866L340.481 82.384ZM337.627 91.0496C336.3 94.7489 334.905 97.7292 333.467 100.039L338.559 103.211C340.287 100.437 341.851 97.0428 343.274 93.0754L337.627 91.0496ZM333.474 100.027C328.823 107.414 323.275 111.703 316.891 113.345L318.385 119.155C326.585 117.047 333.286 111.586 338.552 103.223L333.474 100.027ZM316.894 113.344C313.715 114.158 310.528 114.562 307.326 114.562V120.562C311.04 120.562 314.727 120.092 318.382 119.156L316.894 113.344ZM307.326 114.562C301.096 114.562 296.725 113.019 293.781 110.343L289.745 114.782C294.134 118.772 300.138 120.562 307.326 120.562V114.562ZM293.756 110.32C291.012 107.881 289.701 104.964 289.701 101.375H283.701C283.701 106.703 285.764 111.244 289.77 114.805L293.756 110.32ZM289.701 101.375C289.701 97.594 290.813 94.0029 293.13 90.5452L288.146 87.2048C285.213 91.5805 283.701 96.3227 283.701 101.375H289.701ZM291.411 91.7737C291.41 91.7738 291.427 91.7694 291.466 91.762C291.503 91.7547 291.555 91.7458 291.624 91.7362C291.762 91.7166 291.947 91.6968 292.184 91.6796C292.66 91.645 293.286 91.625 294.076 91.625V85.625C292.432 85.625 290.917 85.6956 289.865 85.9763L291.411 91.7737ZM294.076 91.625C295.515 91.625 297.421 91.8072 299.832 92.2092L300.819 86.2908C298.23 85.8594 295.969 85.625 294.076 85.625V91.625ZM299.775 92.199C303.234 92.845 305.847 93.3301 307.612 93.6539C308.494 93.8156 309.169 93.9381 309.634 94.0204C309.865 94.0614 310.053 94.0939 310.191 94.1168C310.259 94.128 310.327 94.1391 310.389 94.1481C310.418 94.1524 310.461 94.1586 310.51 94.1643C310.534 94.1672 310.572 94.1716 310.619 94.1757C310.649 94.1783 310.754 94.1875 310.888 94.1875V88.1875C311.153 88.1875 311.392 88.2311 311.261 88.2118C311.253 88.2107 311.227 88.2066 311.173 88.1976C311.067 88.1802 310.905 88.1522 310.681 88.1124C310.234 88.0333 309.574 87.9135 308.695 87.7524C306.939 87.4303 304.334 86.9467 300.876 86.301L299.775 92.199ZM310.464 94.1573C310.638 94.1823 310.849 94.2231 311.098 94.2854L312.553 88.4646C312.136 88.3602 311.721 88.2761 311.312 88.2177L310.464 94.1573ZM311.494 94.3567C312.021 94.4152 312.622 94.4375 313.263 94.4375V88.4375C312.738 88.4375 312.38 88.4181 312.157 88.3933L311.494 94.3567ZM313.263 94.4375C314.46 94.4375 315.638 94.0794 316.637 93.2801L312.889 88.5949C312.953 88.5433 313.037 88.4964 313.127 88.4665C313.214 88.4375 313.266 88.4375 313.263 88.4375V94.4375ZM316.637 93.2801C318.191 92.0371 318.388 90.1099 318.388 88.9375H312.388C312.388 89.0858 312.38 89.1886 312.372 89.2529C312.364 89.3182 312.358 89.3266 312.368 89.2927C312.388 89.2297 312.506 88.9011 312.889 88.5949L316.637 93.2801ZM315.95 85.9906L301.2 83.1781L300.076 89.0719L314.826 91.8844L315.95 85.9906ZM301.785 83.3529C298.993 82.1975 296.288 79.6601 293.822 75.2286L288.579 78.1464C291.446 83.2982 295.033 87.0525 299.491 88.8971L301.785 83.3529ZM293.822 75.229C290.794 69.7854 288.635 62.1939 287.493 52.2816L281.533 52.9684C282.724 63.3061 285.024 71.7562 288.579 78.146L293.822 75.229ZM286.893 50.7985C284.588 47.7954 283.388 44.1642 283.388 39.75H277.388C277.388 45.3358 278.938 50.2879 282.133 54.4515L286.893 50.7985ZM283.388 39.75C283.388 35.2744 284.498 31.5199 286.626 28.3645L281.65 25.0105C278.778 29.2717 277.388 34.2256 277.388 39.75H283.388ZM284.138 29.6875H300.201V23.6875H284.138V29.6875ZM300.201 29.6875C304.999 29.6875 308.065 31.0448 309.994 33.275L314.532 29.35C311.128 25.4136 306.152 23.6875 300.201 23.6875V29.6875ZM309.982 33.2615C311.416 34.9391 312.533 37.6457 313.035 41.7402L318.991 41.0098C318.41 36.271 317.027 32.2692 314.544 29.3635L309.982 33.2615ZM313.037 40.9987C312.104 48.376 311.638 55.8559 311.638 63.4375H317.638C317.638 56.1024 318.089 48.874 318.989 41.7513L313.037 40.9987Z" fill="white" mask="url(#path-1-outside-1_1337_878)"/>
</svg>
